<?xml version="1.0" encoding="UTF-8" standalone="no"?>
<!-- Created with Inkscape (http://www.inkscape.org/) -->

<svg
   xmlns:dc="http://purl.org/dc/elements/1.1/"
   xmlns:cc="http://creativecommons.org/ns#"
   xmlns:rdf="http://www.w3.org/1999/02/22-rdf-syntax-ns#"
   xmlns:svg="http://www.w3.org/2000/svg"
   xmlns="http://www.w3.org/2000/svg"
   xmlns:sodipodi="http://sodipodi.sourceforge.net/DTD/sodipodi-0.dtd"
   xmlns:inkscape="http://www.inkscape.org/namespaces/inkscape"
   version="1.1"
   id="svg2"
   width="512"
   height="512"
   viewBox="0 0 512 512"
   sodipodi:docname="trade_license.svg"
   inkscape:version="0.92.5 (2060ec1f9f, 2020-04-08)">
  <metadata
     id="metadata8">
    <rdf:RDF>
      <cc:Work
         rdf:about="">
        <dc:format>image/svg+xml</dc:format>
        <dc:type
           rdf:resource="http://purl.org/dc/dcmitype/StillImage" />
        <dc:title></dc:title>
      </cc:Work>
    </rdf:RDF>
  </metadata>
  <defs
     id="defs6" />
  <sodipodi:namedview
     pagecolor="#ffffff"
     bordercolor="#666666"
     borderopacity="1"
     objecttolerance="10"
     gridtolerance="10"
     guidetolerance="10"
     inkscape:pageopacity="0"
     inkscape:pageshadow="2"
     inkscape:window-width="1848"
     inkscape:window-height="1016"
     id="namedview4"
     showgrid="false"
     inkscape:zoom="0.65186406"
     inkscape:cx="212.1308"
     inkscape:cy="220.55104"
     inkscape:window-x="72"
     inkscape:window-y="27"
     inkscape:window-maximized="1"
     inkscape:current-layer="svg2" />
  <g
     id="g1047"
     transform="matrix(0.73993699,0,0,0.73993699,-300.20357,-91.064677)">
    <path
       inkscape:connector-curvature="0"
       id="path1026"
       d="m 780.08384,581.87713 c -0.23597,-0.73324 -0.90896,-7.63317 -1.49553,-15.33316 -0.80485,-10.56536 -1.44631,-14.28013 -2.61468,-15.14184 -0.8515,-0.628 -7.39014,-3.51883 -14.5303,-6.42407 -7.14017,-2.90523 -12.8282,-5.744 -12.64007,-6.30838 0.18812,-0.56438 6.16201,-3.44968 13.27531,-6.41178 7.11329,-2.9621 13.47915,-5.9095 14.14635,-6.54979 0.71786,-0.6889 1.69138,-7.08357 2.38471,-15.66415 0.64439,-7.975 1.49757,-14.86408 1.89597,-15.30906 0.39839,-0.44498 5.17527,4.38031 10.61529,10.72288 6.93962,8.09097 10.5433,11.54003 12.07723,11.55906 1.20245,0.0149 7.9325,-1.33805 14.95564,-3.0066 7.02315,-1.66855 13.36746,-2.90605 14.09846,-2.75 0.86889,0.18548 -1.45296,4.83624 -6.70565,13.43169 -4.41911,7.23138 -8.03461,13.53138 -8.03446,14 1.5e-4,0.46861 3.57856,6.66743 7.95203,13.77514 7.48393,12.16281 8.66104,15.03946 5.76566,14.09024 -2.94135,-0.96429 -27.00515,-6.51334 -28.24554,-6.51334 -0.75587,0 -5.73896,5.0625 -11.07353,11.25 -5.33457,6.1875 -10.0814,11.39992 -10.54853,11.58316 -0.46712,0.18323 -1.04239,-0.26677 -1.27836,-1 z"
       style="fill:#f35113" />
    <path
       inkscape:connector-curvature="0"
       id="path128"
       d="m 758.80504,713.54626 c 0.24075,-1.78751 1.7993,-19.9 3.46343,-40.25 1.66414,-20.35001 3.24209,-38.35001 3.50657,-40 0.45987,-2.86902 0.71627,-3.00941 5.87254,-3.21565 2.96542,-0.1186 7.79969,-1.13087 10.74283,-2.2495 6.82647,-2.59458 10.46651,-2.56178 18.2788,0.16472 l 6.30248,2.19959 6.79052,33.3115 c 3.73479,18.32133 6.52769,33.57432 6.20646,33.89556 -0.32123,0.32124 -6.47696,-1.05369 -13.6794,-3.05539 -7.20244,-2.00168 -13.64713,-3.3134 -14.32153,-2.91489 -0.6744,0.39848 -8.06253,6.26842 -16.41806,13.04429 -8.35553,6.77588 -15.63974,12.31977 -16.18713,12.31977 -0.54739,0 -0.79827,-1.4625 -0.55751,-3.25 z"
       style="fill:#f35113" />
    <path
       inkscape:connector-curvature="0"
       id="path126"
       d="m 846.39909,653.75569 c -7.78664,-17.06318 -14.15753,-31.37818 -14.15753,-31.81109 0,-1.25842 7.73328,-11.27322 9.8497,-12.75562 1.05989,-0.74239 5.77403,-2.74177 10.47587,-4.44309 4.70183,-1.70132 9.08216,-3.73598 9.73405,-4.52148 0.6519,-0.78548 1.69341,-1.42815 2.31447,-1.42815 1.06766,0 56.70259,63.14332 57.50294,65.26344 0.23894,0.63295 -1.59233,0.77861 -5,0.39772 -2.95737,-0.33056 -12.80203,-0.89196 -21.87703,-1.24755 l -16.5,-0.64652 -7.82733,10.05818 c -4.30502,5.532 -8.39664,10.53067 -9.09246,11.10816 -0.97931,0.81275 -4.46376,-5.95927 -15.42268,-29.974 z"
       style="fill:#f35113" />
    <path
       inkscape:connector-curvature="0"
       id="path124"
       d="m 606.24156,630.96746 c -2.475,-0.92059 -5.89691,-2.43836 -7.60424,-3.3728 -5.13559,-2.81081 -13.06589,-12.30081 -15.32516,-18.33925 -2.06548,-5.52048 -2.0706,-5.97187 -2.0706,-182.45916 0,-176.87495 5.9e-4,-176.92654 2.08479,-182.49706 2.74407,-7.33418 10.94851,-16.18533 18.58744,-20.05259 l 5.82777,-2.95034 h 140.5 140.5 l 6.01625,3.1464 c 7.08105,3.70327 14.65129,11.41378 17.76545,18.09465 l 2.2183,4.75895 0.2626,177.49999 c 0.23599,159.51365 0.1024,178.00667 -1.31835,182.50001 -1.92338,6.08301 -6.48375,13 -8.5709,13 -0.84153,0 -4.54713,-3.44565 -8.23467,-7.65697 l -6.70462,-7.65697 0.0492,-175.11131 c 0.0437,-155.44551 -0.12298,-175.44427 -1.48396,-178.0761 -3.30246,-6.38626 5.77613,-5.99865 -140.4993,-5.99865 -144.17276,0 -136.58797,-0.28175 -140.4393,5.21679 -1.39969,1.99835 -1.5607,20.10762 -1.5607,175.54089 0,159.01653 0.13541,173.51934 1.64162,175.8181 0.90289,1.37798 2.59039,3.04965 3.75,3.71482 1.55519,0.89207 17.5887,1.34058 61.10838,1.70939 58.5581,0.49626 59.03108,0.51662 63.14923,2.71891 2.32691,1.24438 5.13683,3.87955 6.3979,6 1.23677,2.0796 3.75711,5.22065 5.60077,6.98011 2.37132,2.26303 3.3521,4.09169 3.3521,6.25 v 3.05099 l -70.25,-0.0775 c -63.10578,-0.0696 -70.70764,-0.24773 -74.75,-1.7513 z"
       style="fill:#933ec5;fill-opacity:1" />
    <path
       id="path122"
       d="m 768.88477,458.90234 c -5.68028,0.13423 -9.33719,3.00204 -14.01368,9.3711 -6.43466,8.76356 -9.27581,10.90789 -18.54297,13.99414 -13.52251,4.50341 -16.08593,8.00547 -16.08593,21.96289 0,10.05971 -1.04605,13.08367 -7.75196,22.43945 -4.32369,6.03222 -4.74804,7.13202 -4.74804,12.27735 0,4.82293 0.47698,6.28917 3.25781,10 7.99506,10.66886 8.67759,12.47233 9.24414,24.41015 0.72759,15.33136 2.80658,18.05942 17.04688,22.38477 8.06613,2.45002 10.61172,4.37309 17.05078,12.8789 2.74642,3.62793 6.20835,7.39829 7.69531,8.37891 3.522,2.32268 10.41738,2.30077 17.29883,-0.0547 9.60538,-3.28784 11.85456,-3.35794 20.88086,-0.65625 15.14528,4.53318 19.58035,3.2105 27.97851,-8.33594 5.98594,-8.2299 7.14229,-9.05025 17.625,-12.52734 5.8405,-1.93728 9.02571,-3.65678 11.5,-6.20898 3.38125,-3.48771 3.42837,-3.66305 4.02539,-14.74219 0.66407,-12.32352 1.42663,-14.49417 8.29688,-23.59375 3.84332,-5.09044 4.09961,-5.84174 4.09961,-12.08398 0,-6.24225 -0.25629,-6.99355 -4.09961,-12.08399 -6.91678,-9.16122 -7.6772,-11.31415 -8.36328,-23.65625 -0.61542,-11.07111 -0.67563,-11.29044 -4.01172,-14.73242 -2.45262,-2.53045 -5.57448,-4.20247 -11.32031,-6.0625 -10.35272,-3.35137 -11.86697,-4.43802 -18.27539,-13.10352 -8.3664,-11.31304 -11.75488,-12.25168 -27.83008,-7.71093 l -9.38672,2.65234 -8.50196,-2.65234 c -5.52305,-1.722 -9.66019,-2.62546 -13.06835,-2.54493 z m 23.35742,18.51758 c 16.4772,0.14567 29.542,5.82587 42.11523,18.3125 8.34304,8.28578 13.56468,17.1832 16.31446,27.79492 2.02044,7.79824 2.01964,22.7433 -0.002,30.54493 -5.49584,21.20916 -22.67213,38.69368 -43.47461,44.25585 -3.00006,0.80215 -9.05312,1.67191 -13.45312,1.9336 -17.21764,1.02403 -33.68454,-5.486 -46.4668,-18.3711 -8.52723,-8.59582 -12.93489,-16.48104 -16.07227,-28.74804 -6.92473,-27.07543 7.08447,-57.21544 32.13868,-69.14258 10.99322,-5.23336 17.3561,-6.68214 28.90039,-6.58008 z"
       style="fill:#f35113"
       inkscape:connector-curvature="0" />
    <path
       inkscape:connector-curvature="0"
       id="path116"
       d="m 643.84575,536.7377 c -3.52236,-4.18608 -3.41358,-8.28591 0.31889,-12.01837 l 2.92307,-2.92307 h 25.07693 c 13.7923,0 25.07692,0.17003 25.07692,0.37788 0,0.20783 -0.72823,2.12033 -1.6183,4.25 -0.89006,2.12966 -1.90788,5.89711 -2.26182,8.37212 l -0.64353,4.5 -23.13399,0.26817 -23.13399,0.26817 z"
       style="fill:#933ec5;fill-opacity:1" />
    <path
       inkscape:connector-curvature="0"
       id="path114"
       d="m 644.16464,482.87317 c -1.995,-1.99498 -2.92308,-3.92442 -2.92308,-6.07692 0,-2.15249 0.92808,-4.08193 2.92308,-6.07691 l 2.92307,-2.92309 h 40.57693 c 22.3173,0 40.57692,0.20095 40.57692,0.44655 0,0.2456 -2.46915,2.08547 -5.48699,4.0886 -3.01785,2.00313 -7.47409,5.85219 -9.90276,8.55345 l -4.41577,4.91141 h -30.67416 -30.67417 z"
       style="fill:#933ec5;fill-opacity:1" />
    <path
       inkscape:connector-curvature="0"
       id="path112"
       d="m 644.16464,428.87317 c -1.995,-1.99499 -2.92308,-3.92442 -2.92308,-6.07692 0,-2.1525 0.92808,-4.08193 2.92308,-6.07692 l 2.92307,-2.92308 h 100.94207 c 100.60617,0 100.95083,0.007 103.57692,2.07258 2.20005,1.73056 2.63486,2.87373 2.63486,6.92742 0,4.05369 -0.43481,5.19686 -2.63486,6.92742 -2.62609,2.06568 -2.97075,2.07258 -103.57692,2.07258 H 647.08771 Z"
       style="fill:#933ec5;fill-opacity:1" />
    <path
       inkscape:connector-curvature="0"
       id="path24-3"
       d="m 678.87882,355.33144 c -14.1419,-5.04144 -17.04669,-24.01841 -5.07444,-33.15127 l 3.78051,-2.88391 69.57834,-0.26471 c 78.48483,-0.29859 73.57616,-0.76236 79.43844,7.50527 7.41444,10.45665 2.11181,25.81284 -10.08278,29.1993 -2.46441,0.68438 -26.36987,1.03566 -68.77733,1.01066 -52.58625,-0.031 -65.73771,-0.3013 -68.86274,-1.41534 z"
       style="fill:#933ec5;fill-opacity:1" />
  </g>
</svg>
